G04 #@! TF.FileFunction,Profile,NP*
%FSLAX46Y46*%
G04 Gerber Fmt 4.6, Leading zero omitted, Abs format (unit mm)*
G04 Created by KiCad (PCBNEW 4.0.7) date 02/09/18 10:32:30*
%MOMM*%
%LPD*%
G01*
G04 APERTURE LIST*
%ADD10C,0.100000*%
%ADD11C,0.150000*%
G04 APERTURE END LIST*
D10*
D11*
X246634000Y-92710000D02*
X246380000Y-92710000D01*
X247396000Y-92710000D02*
X246634000Y-92710000D01*
X247396000Y-88900000D02*
X247396000Y-92710000D01*
X246380000Y-88900000D02*
X247396000Y-88900000D01*
X214376000Y-83820000D02*
X234950000Y-83820000D01*
X213614000Y-83058000D02*
X214376000Y-83820000D01*
X207264000Y-76708000D02*
X213614000Y-83058000D01*
X207772000Y-76200000D02*
X207264000Y-76708000D01*
X210820000Y-73152000D02*
X207772000Y-76200000D01*
X216154000Y-78486000D02*
X210820000Y-73152000D01*
X229616000Y-78486000D02*
X216154000Y-78486000D01*
X230124000Y-78486000D02*
X229616000Y-78486000D01*
X230124000Y-65532000D02*
X230124000Y-78486000D01*
X235204000Y-65532000D02*
X230124000Y-65532000D01*
X235204000Y-66294000D02*
X235204000Y-65532000D01*
X235204000Y-78994000D02*
X235204000Y-66294000D01*
X236220000Y-80010000D02*
X235204000Y-78994000D01*
X194310000Y-105410000D02*
X193040000Y-105410000D01*
X198120000Y-100330000D02*
X198120000Y-101600000D01*
X194310000Y-105410000D02*
G75*
G03X198120000Y-101600000I0J3810000D01*
G01*
X198120000Y-96520000D02*
G75*
G03X194310000Y-92710000I-3810000J0D01*
G01*
X193040000Y-92710000D02*
X194310000Y-92710000D01*
X198120000Y-97790000D02*
X198120000Y-96520000D01*
X252730000Y-92710000D02*
X254000000Y-92710000D01*
X252730000Y-92710000D02*
G75*
G03X248920000Y-96520000I0J-3810000D01*
G01*
X248920000Y-97790000D02*
X248920000Y-96520000D01*
X261620000Y-107950000D02*
X261620000Y-129540000D01*
X185420000Y-107950000D02*
X185420000Y-129540000D01*
X248920000Y-100330000D02*
X248920000Y-101600000D01*
X259080000Y-105410000D02*
X252730000Y-105410000D01*
X248920000Y-101600000D02*
G75*
G03X252730000Y-105410000I3810000J0D01*
G01*
X248920000Y-99060000D02*
X248920000Y-100330000D01*
X261620000Y-107950000D02*
G75*
G03X259080000Y-105410000I-2540000J0D01*
G01*
X193040000Y-105410000D02*
X187960000Y-105410000D01*
X198120000Y-99060000D02*
X198120000Y-100330000D01*
X187960000Y-105410000D02*
G75*
G03X185420000Y-107950000I0J-2540000D01*
G01*
X198120000Y-97790000D02*
X198120000Y-99060000D01*
X193040000Y-92710000D02*
X187960000Y-92710000D01*
X185420000Y-90170000D02*
X185420000Y-64770000D01*
X185420000Y-90170000D02*
G75*
G03X187960000Y-92710000I2540000J0D01*
G01*
X261620000Y-90170000D02*
X261620000Y-64770000D01*
X259080000Y-92710000D02*
X254000000Y-92710000D01*
X248920000Y-99060000D02*
X248920000Y-97790000D01*
X259080000Y-92710000D02*
G75*
G03X261620000Y-90170000I0J2540000D01*
G01*
X187960000Y-62230000D02*
X198120000Y-62230000D01*
X259080000Y-62230000D02*
X248920000Y-62230000D01*
X261620000Y-64770000D02*
G75*
G03X259080000Y-62230000I-2540000J0D01*
G01*
X187960000Y-62230000D02*
G75*
G03X185420000Y-64770000I0J-2540000D01*
G01*
X248920000Y-62230000D02*
X198120000Y-62230000D01*
X243840000Y-92710000D02*
X246380000Y-92710000D01*
X234950000Y-83820000D02*
X243840000Y-92710000D01*
X245110000Y-88900000D02*
X236220000Y-80010000D01*
X246380000Y-88900000D02*
X245110000Y-88900000D01*
X259080000Y-132080000D02*
X187960000Y-132080000D01*
X259080000Y-132080000D02*
G75*
G03X261620000Y-129540000I0J2540000D01*
G01*
X185420000Y-129540000D02*
G75*
G03X187960000Y-132080000I2540000J0D01*
G01*
M02*
