G04 #@! TF.FileFunction,Legend,Bot*
%FSLAX46Y46*%
G04 Gerber Fmt 4.6, Leading zero omitted, Abs format (unit mm)*
G04 Created by KiCad (PCBNEW 4.0.7) date 02/09/18 10:32:30*
%MOMM*%
%LPD*%
G01*
G04 APERTURE LIST*
%ADD10C,0.100000*%
%ADD11C,0.300000*%
%ADD12C,0.400000*%
%ADD13C,0.120000*%
%ADD14C,0.381000*%
%ADD15C,0.150000*%
G04 APERTURE END LIST*
D10*
D11*
X259357857Y-74323571D02*
X259357857Y-72823571D01*
X259357857Y-73537857D02*
X258500714Y-73537857D01*
X258500714Y-74323571D02*
X258500714Y-72823571D01*
X258000714Y-72823571D02*
X257500714Y-74323571D01*
X257000714Y-72823571D01*
X255357857Y-74323571D02*
X255357857Y-72823571D01*
X254857857Y-73895000D01*
X254357857Y-72823571D01*
X254357857Y-74323571D01*
X253715000Y-73895000D02*
X253000714Y-73895000D01*
X253857857Y-74323571D02*
X253357857Y-72823571D01*
X252857857Y-74323571D01*
X252072143Y-73609286D02*
X252072143Y-74323571D01*
X252572143Y-72823571D02*
X252072143Y-73609286D01*
X251572143Y-72823571D01*
X249429286Y-73537857D02*
X249215000Y-73609286D01*
X249143572Y-73680714D01*
X249072143Y-73823571D01*
X249072143Y-74037857D01*
X249143572Y-74180714D01*
X249215000Y-74252143D01*
X249357858Y-74323571D01*
X249929286Y-74323571D01*
X249929286Y-72823571D01*
X249429286Y-72823571D01*
X249286429Y-72895000D01*
X249215000Y-72966429D01*
X249143572Y-73109286D01*
X249143572Y-73252143D01*
X249215000Y-73395000D01*
X249286429Y-73466429D01*
X249429286Y-73537857D01*
X249929286Y-73537857D01*
X248429286Y-73537857D02*
X247929286Y-73537857D01*
X247715000Y-74323571D02*
X248429286Y-74323571D01*
X248429286Y-72823571D01*
X247715000Y-72823571D01*
X259357857Y-76873571D02*
X259357857Y-75373571D01*
X258786429Y-75373571D01*
X258643571Y-75445000D01*
X258572143Y-75516429D01*
X258500714Y-75659286D01*
X258500714Y-75873571D01*
X258572143Y-76016429D01*
X258643571Y-76087857D01*
X258786429Y-76159286D01*
X259357857Y-76159286D01*
X257000714Y-76873571D02*
X257500714Y-76159286D01*
X257857857Y-76873571D02*
X257857857Y-75373571D01*
X257286429Y-75373571D01*
X257143571Y-75445000D01*
X257072143Y-75516429D01*
X257000714Y-75659286D01*
X257000714Y-75873571D01*
X257072143Y-76016429D01*
X257143571Y-76087857D01*
X257286429Y-76159286D01*
X257857857Y-76159286D01*
X256357857Y-76087857D02*
X255857857Y-76087857D01*
X255643571Y-76873571D02*
X256357857Y-76873571D01*
X256357857Y-75373571D01*
X255643571Y-75373571D01*
X255072143Y-76802143D02*
X254857857Y-76873571D01*
X254500714Y-76873571D01*
X254357857Y-76802143D01*
X254286428Y-76730714D01*
X254215000Y-76587857D01*
X254215000Y-76445000D01*
X254286428Y-76302143D01*
X254357857Y-76230714D01*
X254500714Y-76159286D01*
X254786428Y-76087857D01*
X254929286Y-76016429D01*
X255000714Y-75945000D01*
X255072143Y-75802143D01*
X255072143Y-75659286D01*
X255000714Y-75516429D01*
X254929286Y-75445000D01*
X254786428Y-75373571D01*
X254429286Y-75373571D01*
X254215000Y-75445000D01*
X253572143Y-76087857D02*
X253072143Y-76087857D01*
X252857857Y-76873571D02*
X253572143Y-76873571D01*
X253572143Y-75373571D01*
X252857857Y-75373571D01*
X252215000Y-76873571D02*
X252215000Y-75373571D01*
X251357857Y-76873571D01*
X251357857Y-75373571D01*
X250857857Y-75373571D02*
X250000714Y-75373571D01*
X250429285Y-76873571D02*
X250429285Y-75373571D01*
X248429286Y-76445000D02*
X247715000Y-76445000D01*
X248572143Y-76873571D02*
X248072143Y-75373571D01*
X247572143Y-76873571D01*
X247286429Y-75373571D02*
X246429286Y-75373571D01*
X246857857Y-76873571D02*
X246857857Y-75373571D01*
X258500714Y-79423571D02*
X259000714Y-78709286D01*
X259357857Y-79423571D02*
X259357857Y-77923571D01*
X258786429Y-77923571D01*
X258643571Y-77995000D01*
X258572143Y-78066429D01*
X258500714Y-78209286D01*
X258500714Y-78423571D01*
X258572143Y-78566429D01*
X258643571Y-78637857D01*
X258786429Y-78709286D01*
X259357857Y-78709286D01*
X257857857Y-78637857D02*
X257357857Y-78637857D01*
X257143571Y-79423571D02*
X257857857Y-79423571D01*
X257857857Y-77923571D01*
X257143571Y-77923571D01*
X255786428Y-79423571D02*
X256500714Y-79423571D01*
X256500714Y-77923571D01*
X255357857Y-78995000D02*
X254643571Y-78995000D01*
X255500714Y-79423571D02*
X255000714Y-77923571D01*
X254500714Y-79423571D01*
X253715000Y-78709286D02*
X253715000Y-79423571D01*
X254215000Y-77923571D02*
X253715000Y-78709286D01*
X253215000Y-77923571D01*
X250357857Y-79423571D02*
X250429286Y-79423571D01*
X250572143Y-79352143D01*
X250786429Y-79137857D01*
X251143572Y-78709286D01*
X251286429Y-78495000D01*
X251357857Y-78280714D01*
X251357857Y-78137857D01*
X251286429Y-77995000D01*
X251143572Y-77923571D01*
X251072143Y-77923571D01*
X250929286Y-77995000D01*
X250857857Y-78137857D01*
X250857857Y-78209286D01*
X250929286Y-78352143D01*
X251000715Y-78423571D01*
X251429286Y-78709286D01*
X251500715Y-78780714D01*
X251572143Y-78923571D01*
X251572143Y-79137857D01*
X251500715Y-79280714D01*
X251429286Y-79352143D01*
X251286429Y-79423571D01*
X251072143Y-79423571D01*
X250929286Y-79352143D01*
X250857857Y-79280714D01*
X250643572Y-78995000D01*
X250572143Y-78780714D01*
X250572143Y-78637857D01*
X258500714Y-81830714D02*
X258572143Y-81902143D01*
X258786429Y-81973571D01*
X258929286Y-81973571D01*
X259143571Y-81902143D01*
X259286429Y-81759286D01*
X259357857Y-81616429D01*
X259429286Y-81330714D01*
X259429286Y-81116429D01*
X259357857Y-80830714D01*
X259286429Y-80687857D01*
X259143571Y-80545000D01*
X258929286Y-80473571D01*
X258786429Y-80473571D01*
X258572143Y-80545000D01*
X258500714Y-80616429D01*
X257572143Y-80473571D02*
X257286429Y-80473571D01*
X257143571Y-80545000D01*
X257000714Y-80687857D01*
X256929286Y-80973571D01*
X256929286Y-81473571D01*
X257000714Y-81759286D01*
X257143571Y-81902143D01*
X257286429Y-81973571D01*
X257572143Y-81973571D01*
X257715000Y-81902143D01*
X257857857Y-81759286D01*
X257929286Y-81473571D01*
X257929286Y-80973571D01*
X257857857Y-80687857D01*
X257715000Y-80545000D01*
X257572143Y-80473571D01*
X256286428Y-81973571D02*
X256286428Y-80473571D01*
X255429285Y-81973571D01*
X255429285Y-80473571D01*
X254714999Y-81973571D02*
X254714999Y-80473571D01*
X253857856Y-81973571D01*
X253857856Y-80473571D01*
X253143570Y-81187857D02*
X252643570Y-81187857D01*
X252429284Y-81973571D02*
X253143570Y-81973571D01*
X253143570Y-80473571D01*
X252429284Y-80473571D01*
X250929284Y-81830714D02*
X251000713Y-81902143D01*
X251214999Y-81973571D01*
X251357856Y-81973571D01*
X251572141Y-81902143D01*
X251714999Y-81759286D01*
X251786427Y-81616429D01*
X251857856Y-81330714D01*
X251857856Y-81116429D01*
X251786427Y-80830714D01*
X251714999Y-80687857D01*
X251572141Y-80545000D01*
X251357856Y-80473571D01*
X251214999Y-80473571D01*
X251000713Y-80545000D01*
X250929284Y-80616429D01*
X250500713Y-80473571D02*
X249643570Y-80473571D01*
X250072141Y-81973571D02*
X250072141Y-80473571D01*
X248857856Y-80473571D02*
X248572142Y-80473571D01*
X248429284Y-80545000D01*
X248286427Y-80687857D01*
X248214999Y-80973571D01*
X248214999Y-81473571D01*
X248286427Y-81759286D01*
X248429284Y-81902143D01*
X248572142Y-81973571D01*
X248857856Y-81973571D01*
X249000713Y-81902143D01*
X249143570Y-81759286D01*
X249214999Y-81473571D01*
X249214999Y-80973571D01*
X249143570Y-80687857D01*
X249000713Y-80545000D01*
X248857856Y-80473571D01*
X246714998Y-81973571D02*
X247214998Y-81259286D01*
X247572141Y-81973571D02*
X247572141Y-80473571D01*
X247000713Y-80473571D01*
X246857855Y-80545000D01*
X246786427Y-80616429D01*
X246714998Y-80759286D01*
X246714998Y-80973571D01*
X246786427Y-81116429D01*
X246857855Y-81187857D01*
X247000713Y-81259286D01*
X247572141Y-81259286D01*
D12*
X216916000Y-124968000D02*
X216154000Y-125730000D01*
X220726000Y-129286000D02*
X219202000Y-127762000D01*
X224536000Y-129286000D02*
X220726000Y-129286000D01*
X217932000Y-123952000D02*
X216916000Y-124968000D01*
X225552000Y-123952000D02*
X217932000Y-123952000D01*
X226822000Y-126746000D02*
X224536000Y-126746000D01*
D11*
X229488857Y-123446000D02*
X229631714Y-123374571D01*
X229846000Y-123374571D01*
X230060285Y-123446000D01*
X230203143Y-123588857D01*
X230274571Y-123731714D01*
X230346000Y-124017429D01*
X230346000Y-124231714D01*
X230274571Y-124517429D01*
X230203143Y-124660286D01*
X230060285Y-124803143D01*
X229846000Y-124874571D01*
X229703143Y-124874571D01*
X229488857Y-124803143D01*
X229417428Y-124731714D01*
X229417428Y-124231714D01*
X229703143Y-124231714D01*
X228774571Y-124874571D02*
X228774571Y-123374571D01*
X227917428Y-124874571D01*
X227917428Y-123374571D01*
X227203142Y-124874571D02*
X227203142Y-123374571D01*
X226845999Y-123374571D01*
X226631714Y-123446000D01*
X226488856Y-123588857D01*
X226417428Y-123731714D01*
X226345999Y-124017429D01*
X226345999Y-124231714D01*
X226417428Y-124517429D01*
X226488856Y-124660286D01*
X226631714Y-124803143D01*
X226845999Y-124874571D01*
X227203142Y-124874571D01*
X228631713Y-125924571D02*
X229345999Y-125924571D01*
X229417428Y-126638857D01*
X229345999Y-126567429D01*
X229203142Y-126496000D01*
X228845999Y-126496000D01*
X228703142Y-126567429D01*
X228631713Y-126638857D01*
X228560285Y-126781714D01*
X228560285Y-127138857D01*
X228631713Y-127281714D01*
X228703142Y-127353143D01*
X228845999Y-127424571D01*
X229203142Y-127424571D01*
X229345999Y-127353143D01*
X229417428Y-127281714D01*
X228131714Y-125924571D02*
X227631714Y-127424571D01*
X227131714Y-125924571D01*
X230631714Y-129974571D02*
X231346000Y-129974571D01*
X231346000Y-128474571D01*
X230203143Y-129546000D02*
X229488857Y-129546000D01*
X230346000Y-129974571D02*
X229846000Y-128474571D01*
X229346000Y-129974571D01*
X229060286Y-128474571D02*
X228203143Y-128474571D01*
X228631714Y-129974571D02*
X228631714Y-128474571D01*
X226846000Y-129831714D02*
X226917429Y-129903143D01*
X227131715Y-129974571D01*
X227274572Y-129974571D01*
X227488857Y-129903143D01*
X227631715Y-129760286D01*
X227703143Y-129617429D01*
X227774572Y-129331714D01*
X227774572Y-129117429D01*
X227703143Y-128831714D01*
X227631715Y-128688857D01*
X227488857Y-128546000D01*
X227274572Y-128474571D01*
X227131715Y-128474571D01*
X226917429Y-128546000D01*
X226846000Y-128617429D01*
X226203143Y-129974571D02*
X226203143Y-128474571D01*
X226203143Y-129188857D02*
X225346000Y-129188857D01*
X225346000Y-129974571D02*
X225346000Y-128474571D01*
X204294572Y-130044000D02*
X203580286Y-130044000D01*
X204437429Y-130472571D02*
X203937429Y-128972571D01*
X203437429Y-130472571D01*
X202080286Y-130329714D02*
X202151715Y-130401143D01*
X202366001Y-130472571D01*
X202508858Y-130472571D01*
X202723143Y-130401143D01*
X202866001Y-130258286D01*
X202937429Y-130115429D01*
X203008858Y-129829714D01*
X203008858Y-129615429D01*
X202937429Y-129329714D01*
X202866001Y-129186857D01*
X202723143Y-129044000D01*
X202508858Y-128972571D01*
X202366001Y-128972571D01*
X202151715Y-129044000D01*
X202080286Y-129115429D01*
X201651715Y-128972571D02*
X200794572Y-128972571D01*
X201223143Y-130472571D02*
X201223143Y-128972571D01*
X200294572Y-130472571D02*
X200294572Y-128972571D01*
X199794572Y-128972571D02*
X199294572Y-130472571D01*
X198794572Y-128972571D01*
X198294572Y-129686857D02*
X197794572Y-129686857D01*
X197580286Y-130472571D02*
X198294572Y-130472571D01*
X198294572Y-128972571D01*
X197580286Y-128972571D01*
X196937429Y-129901143D02*
X195794572Y-129901143D01*
X194794572Y-128972571D02*
X194508858Y-128972571D01*
X194366000Y-129044000D01*
X194223143Y-129186857D01*
X194151715Y-129472571D01*
X194151715Y-129972571D01*
X194223143Y-130258286D01*
X194366000Y-130401143D01*
X194508858Y-130472571D01*
X194794572Y-130472571D01*
X194937429Y-130401143D01*
X195080286Y-130258286D01*
X195151715Y-129972571D01*
X195151715Y-129472571D01*
X195080286Y-129186857D01*
X194937429Y-129044000D01*
X194794572Y-128972571D01*
X193508857Y-128972571D02*
X193508857Y-130186857D01*
X193437429Y-130329714D01*
X193366000Y-130401143D01*
X193223143Y-130472571D01*
X192937429Y-130472571D01*
X192794571Y-130401143D01*
X192723143Y-130329714D01*
X192651714Y-130186857D01*
X192651714Y-128972571D01*
X192151714Y-128972571D02*
X191294571Y-128972571D01*
X191723142Y-130472571D02*
X191723142Y-128972571D01*
X202604000Y-125138571D02*
X202604000Y-123638571D01*
X201746857Y-125138571D01*
X201746857Y-123638571D01*
X200746857Y-123638571D02*
X200461143Y-123638571D01*
X200318285Y-123710000D01*
X200175428Y-123852857D01*
X200104000Y-124138571D01*
X200104000Y-124638571D01*
X200175428Y-124924286D01*
X200318285Y-125067143D01*
X200461143Y-125138571D01*
X200746857Y-125138571D01*
X200889714Y-125067143D01*
X201032571Y-124924286D01*
X201104000Y-124638571D01*
X201104000Y-124138571D01*
X201032571Y-123852857D01*
X200889714Y-123710000D01*
X200746857Y-123638571D01*
X199675428Y-123638571D02*
X198818285Y-123638571D01*
X199246856Y-125138571D02*
X199246856Y-123638571D01*
X198318285Y-124567143D02*
X197175428Y-124567143D01*
X196532571Y-124710000D02*
X195818285Y-124710000D01*
X196675428Y-125138571D02*
X196175428Y-123638571D01*
X195675428Y-125138571D01*
X195175428Y-123638571D02*
X195175428Y-124852857D01*
X195104000Y-124995714D01*
X195032571Y-125067143D01*
X194889714Y-125138571D01*
X194604000Y-125138571D01*
X194461142Y-125067143D01*
X194389714Y-124995714D01*
X194318285Y-124852857D01*
X194318285Y-123638571D01*
X193818285Y-123638571D02*
X192961142Y-123638571D01*
X193389713Y-125138571D02*
X193389713Y-123638571D01*
X192461142Y-125138571D02*
X192461142Y-123638571D01*
X192461142Y-124352857D02*
X191603999Y-124352857D01*
X191603999Y-125138571D02*
X191603999Y-123638571D01*
X205390285Y-119479143D02*
X205175999Y-119550571D01*
X204818856Y-119550571D01*
X204675999Y-119479143D01*
X204604570Y-119407714D01*
X204533142Y-119264857D01*
X204533142Y-119122000D01*
X204604570Y-118979143D01*
X204675999Y-118907714D01*
X204818856Y-118836286D01*
X205104570Y-118764857D01*
X205247428Y-118693429D01*
X205318856Y-118622000D01*
X205390285Y-118479143D01*
X205390285Y-118336286D01*
X205318856Y-118193429D01*
X205247428Y-118122000D01*
X205104570Y-118050571D01*
X204747428Y-118050571D01*
X204533142Y-118122000D01*
X204104571Y-118050571D02*
X203247428Y-118050571D01*
X203675999Y-119550571D02*
X203675999Y-118050571D01*
X202818857Y-119122000D02*
X202104571Y-119122000D01*
X202961714Y-119550571D02*
X202461714Y-118050571D01*
X201961714Y-119550571D01*
X201676000Y-118050571D02*
X200818857Y-118050571D01*
X201247428Y-119550571D02*
X201247428Y-118050571D01*
X200318857Y-118050571D02*
X200318857Y-119264857D01*
X200247429Y-119407714D01*
X200176000Y-119479143D01*
X200033143Y-119550571D01*
X199747429Y-119550571D01*
X199604571Y-119479143D01*
X199533143Y-119407714D01*
X199461714Y-119264857D01*
X199461714Y-118050571D01*
X198818857Y-119479143D02*
X198604571Y-119550571D01*
X198247428Y-119550571D01*
X198104571Y-119479143D01*
X198033142Y-119407714D01*
X197961714Y-119264857D01*
X197961714Y-119122000D01*
X198033142Y-118979143D01*
X198104571Y-118907714D01*
X198247428Y-118836286D01*
X198533142Y-118764857D01*
X198676000Y-118693429D01*
X198747428Y-118622000D01*
X198818857Y-118479143D01*
X198818857Y-118336286D01*
X198747428Y-118193429D01*
X198676000Y-118122000D01*
X198533142Y-118050571D01*
X198176000Y-118050571D01*
X197961714Y-118122000D01*
X198536286Y-114470571D02*
X198536286Y-112970571D01*
X197964858Y-112970571D01*
X197822000Y-113042000D01*
X197750572Y-113113429D01*
X197679143Y-113256286D01*
X197679143Y-113470571D01*
X197750572Y-113613429D01*
X197822000Y-113684857D01*
X197964858Y-113756286D01*
X198536286Y-113756286D01*
X196750572Y-112970571D02*
X196464858Y-112970571D01*
X196322000Y-113042000D01*
X196179143Y-113184857D01*
X196107715Y-113470571D01*
X196107715Y-113970571D01*
X196179143Y-114256286D01*
X196322000Y-114399143D01*
X196464858Y-114470571D01*
X196750572Y-114470571D01*
X196893429Y-114399143D01*
X197036286Y-114256286D01*
X197107715Y-113970571D01*
X197107715Y-113470571D01*
X197036286Y-113184857D01*
X196893429Y-113042000D01*
X196750572Y-112970571D01*
X195607714Y-112970571D02*
X195250571Y-114470571D01*
X194964857Y-113399143D01*
X194679143Y-114470571D01*
X194322000Y-112970571D01*
X193750571Y-113684857D02*
X193250571Y-113684857D01*
X193036285Y-114470571D02*
X193750571Y-114470571D01*
X193750571Y-112970571D01*
X193036285Y-112970571D01*
X191536285Y-114470571D02*
X192036285Y-113756286D01*
X192393428Y-114470571D02*
X192393428Y-112970571D01*
X191822000Y-112970571D01*
X191679142Y-113042000D01*
X191607714Y-113113429D01*
X191536285Y-113256286D01*
X191536285Y-113470571D01*
X191607714Y-113613429D01*
X191679142Y-113684857D01*
X191822000Y-113756286D01*
X192393428Y-113756286D01*
X227349285Y-69806429D02*
X227277856Y-69735000D01*
X227134999Y-69663571D01*
X226777856Y-69663571D01*
X226634999Y-69735000D01*
X226563570Y-69806429D01*
X226492142Y-69949286D01*
X226492142Y-70092143D01*
X226563570Y-70306429D01*
X227420713Y-71163571D01*
X226492142Y-71163571D01*
X225206428Y-70163571D02*
X225206428Y-71163571D01*
X225563571Y-69592143D02*
X225920714Y-70663571D01*
X224992142Y-70663571D01*
X224135000Y-69663571D02*
X223992143Y-69663571D01*
X223849286Y-69735000D01*
X223777857Y-69806429D01*
X223706428Y-69949286D01*
X223635000Y-70235000D01*
X223635000Y-70592143D01*
X223706428Y-70877857D01*
X223777857Y-71020714D01*
X223849286Y-71092143D01*
X223992143Y-71163571D01*
X224135000Y-71163571D01*
X224277857Y-71092143D01*
X224349286Y-71020714D01*
X224420714Y-70877857D01*
X224492143Y-70592143D01*
X224492143Y-70235000D01*
X224420714Y-69949286D01*
X224349286Y-69806429D01*
X224277857Y-69735000D01*
X224135000Y-69663571D01*
X223206429Y-69663571D02*
X222706429Y-71163571D01*
X222206429Y-69663571D01*
X220635001Y-70735000D02*
X219920715Y-70735000D01*
X220777858Y-71163571D02*
X220277858Y-69663571D01*
X219777858Y-71163571D01*
X218420715Y-71020714D02*
X218492144Y-71092143D01*
X218706430Y-71163571D01*
X218849287Y-71163571D01*
X219063572Y-71092143D01*
X219206430Y-70949286D01*
X219277858Y-70806429D01*
X219349287Y-70520714D01*
X219349287Y-70306429D01*
X219277858Y-70020714D01*
X219206430Y-69877857D01*
X219063572Y-69735000D01*
X218849287Y-69663571D01*
X218706430Y-69663571D01*
X218492144Y-69735000D01*
X218420715Y-69806429D01*
X225063571Y-64813571D02*
X225063571Y-63313571D01*
X224206428Y-64813571D01*
X224206428Y-63313571D01*
X220492142Y-64813571D02*
X221206428Y-64813571D01*
X221206428Y-63313571D01*
D13*
X189292608Y-117199665D02*
G75*
G02X189449516Y-120432000I-1078608J-1672335D01*
G01*
X187135392Y-117199665D02*
G75*
G03X186978484Y-120432000I1078608J-1672335D01*
G01*
X189293837Y-117830870D02*
G75*
G02X189294000Y-119912961I-1079837J-1041130D01*
G01*
X187134163Y-117830870D02*
G75*
G03X187134000Y-119912961I1079837J-1041130D01*
G01*
X189450000Y-120432000D02*
X189294000Y-120432000D01*
X187134000Y-120432000D02*
X186978000Y-120432000D01*
X189292608Y-122533665D02*
G75*
G02X189449516Y-125766000I-1078608J-1672335D01*
G01*
X187135392Y-122533665D02*
G75*
G03X186978484Y-125766000I1078608J-1672335D01*
G01*
X189293837Y-123164870D02*
G75*
G02X189294000Y-125246961I-1079837J-1041130D01*
G01*
X187134163Y-123164870D02*
G75*
G03X187134000Y-125246961I1079837J-1041130D01*
G01*
X189450000Y-125766000D02*
X189294000Y-125766000D01*
X187134000Y-125766000D02*
X186978000Y-125766000D01*
X189292608Y-127867665D02*
G75*
G02X189449516Y-131100000I-1078608J-1672335D01*
G01*
X187135392Y-127867665D02*
G75*
G03X186978484Y-131100000I1078608J-1672335D01*
G01*
X189293837Y-128498870D02*
G75*
G02X189294000Y-130580961I-1079837J-1041130D01*
G01*
X187134163Y-128498870D02*
G75*
G03X187134000Y-130580961I1079837J-1041130D01*
G01*
X189450000Y-131100000D02*
X189294000Y-131100000D01*
X187134000Y-131100000D02*
X186978000Y-131100000D01*
X189292608Y-111865665D02*
G75*
G02X189449516Y-115098000I-1078608J-1672335D01*
G01*
X187135392Y-111865665D02*
G75*
G03X186978484Y-115098000I1078608J-1672335D01*
G01*
X189293837Y-112496870D02*
G75*
G02X189294000Y-114578961I-1079837J-1041130D01*
G01*
X187134163Y-112496870D02*
G75*
G03X187134000Y-114578961I1079837J-1041130D01*
G01*
X189450000Y-115098000D02*
X189294000Y-115098000D01*
X187134000Y-115098000D02*
X186978000Y-115098000D01*
D14*
X253862840Y-70144640D02*
X252663960Y-67045840D01*
X252663960Y-67045840D02*
X253263400Y-67444620D01*
X254264160Y-68145660D02*
X252963680Y-65344040D01*
X253862840Y-70144640D02*
X253263400Y-69446140D01*
X253464060Y-65145920D02*
X254264160Y-68145660D01*
X254264160Y-68145660D02*
X253065280Y-67345560D01*
X253065280Y-67345560D02*
X253862840Y-70144640D01*
X253862840Y-70144640D02*
X253964440Y-69245480D01*
X253365000Y-63754000D02*
X248666000Y-70739000D01*
X248666000Y-70739000D02*
X258064000Y-70739000D01*
X258064000Y-70739000D02*
X253365000Y-63754000D01*
X209793840Y-70779640D02*
X208594960Y-67680840D01*
X208594960Y-67680840D02*
X209194400Y-68079620D01*
X210195160Y-68780660D02*
X208894680Y-65979040D01*
X209793840Y-70779640D02*
X209194400Y-70081140D01*
X209395060Y-65780920D02*
X210195160Y-68780660D01*
X210195160Y-68780660D02*
X208996280Y-67980560D01*
X208996280Y-67980560D02*
X209793840Y-70779640D01*
X209793840Y-70779640D02*
X209895440Y-69880480D01*
X209296000Y-64389000D02*
X204597000Y-71374000D01*
X204597000Y-71374000D02*
X213995000Y-71374000D01*
X213995000Y-71374000D02*
X209296000Y-64389000D01*
D15*
X240029905Y-120102381D02*
X240029905Y-120911905D01*
X239982286Y-121007143D01*
X239934667Y-121054762D01*
X239839429Y-121102381D01*
X239648952Y-121102381D01*
X239553714Y-121054762D01*
X239506095Y-121007143D01*
X239458476Y-120911905D01*
X239458476Y-120102381D01*
X238553714Y-120435714D02*
X238553714Y-121102381D01*
X238791810Y-120054762D02*
X239029905Y-120769048D01*
X238410857Y-120769048D01*
X191746095Y-120594381D02*
X191746095Y-119594381D01*
X191508000Y-119594381D01*
X191365142Y-119642000D01*
X191269904Y-119737238D01*
X191222285Y-119832476D01*
X191174666Y-120022952D01*
X191174666Y-120165810D01*
X191222285Y-120356286D01*
X191269904Y-120451524D01*
X191365142Y-120546762D01*
X191508000Y-120594381D01*
X191746095Y-120594381D01*
X190841333Y-119594381D02*
X190222285Y-119594381D01*
X190555619Y-119975333D01*
X190412761Y-119975333D01*
X190317523Y-120022952D01*
X190269904Y-120070571D01*
X190222285Y-120165810D01*
X190222285Y-120403905D01*
X190269904Y-120499143D01*
X190317523Y-120546762D01*
X190412761Y-120594381D01*
X190698476Y-120594381D01*
X190793714Y-120546762D01*
X190841333Y-120499143D01*
X191746095Y-126436381D02*
X191746095Y-125436381D01*
X191508000Y-125436381D01*
X191365142Y-125484000D01*
X191269904Y-125579238D01*
X191222285Y-125674476D01*
X191174666Y-125864952D01*
X191174666Y-126007810D01*
X191222285Y-126198286D01*
X191269904Y-126293524D01*
X191365142Y-126388762D01*
X191508000Y-126436381D01*
X191746095Y-126436381D01*
X190317523Y-125769714D02*
X190317523Y-126436381D01*
X190555619Y-125388762D02*
X190793714Y-126103048D01*
X190174666Y-126103048D01*
X191746095Y-128468381D02*
X191746095Y-127468381D01*
X191508000Y-127468381D01*
X191365142Y-127516000D01*
X191269904Y-127611238D01*
X191222285Y-127706476D01*
X191174666Y-127896952D01*
X191174666Y-128039810D01*
X191222285Y-128230286D01*
X191269904Y-128325524D01*
X191365142Y-128420762D01*
X191508000Y-128468381D01*
X191746095Y-128468381D01*
X190269904Y-127468381D02*
X190746095Y-127468381D01*
X190793714Y-127944571D01*
X190746095Y-127896952D01*
X190650857Y-127849333D01*
X190412761Y-127849333D01*
X190317523Y-127896952D01*
X190269904Y-127944571D01*
X190222285Y-128039810D01*
X190222285Y-128277905D01*
X190269904Y-128373143D01*
X190317523Y-128420762D01*
X190412761Y-128468381D01*
X190650857Y-128468381D01*
X190746095Y-128420762D01*
X190793714Y-128373143D01*
X189968095Y-110688381D02*
X189968095Y-109688381D01*
X189730000Y-109688381D01*
X189587142Y-109736000D01*
X189491904Y-109831238D01*
X189444285Y-109926476D01*
X189396666Y-110116952D01*
X189396666Y-110259810D01*
X189444285Y-110450286D01*
X189491904Y-110545524D01*
X189587142Y-110640762D01*
X189730000Y-110688381D01*
X189968095Y-110688381D01*
X188444285Y-110688381D02*
X189015714Y-110688381D01*
X188730000Y-110688381D02*
X188730000Y-109688381D01*
X188825238Y-109831238D01*
X188920476Y-109926476D01*
X189015714Y-109974095D01*
X254190333Y-52141381D02*
X254523667Y-51665190D01*
X254761762Y-52141381D02*
X254761762Y-51141381D01*
X254380809Y-51141381D01*
X254285571Y-51189000D01*
X254237952Y-51236619D01*
X254190333Y-51331857D01*
X254190333Y-51474714D01*
X254237952Y-51569952D01*
X254285571Y-51617571D01*
X254380809Y-51665190D01*
X254761762Y-51665190D01*
X253761762Y-51617571D02*
X253428428Y-51617571D01*
X253285571Y-52141381D02*
X253761762Y-52141381D01*
X253761762Y-51141381D01*
X253285571Y-51141381D01*
X252523666Y-51617571D02*
X252857000Y-51617571D01*
X252857000Y-52141381D02*
X252857000Y-51141381D01*
X252380809Y-51141381D01*
X251857000Y-51141381D02*
X251857000Y-51379476D01*
X252095095Y-51284238D02*
X251857000Y-51379476D01*
X251618904Y-51284238D01*
X251999857Y-51569952D02*
X251857000Y-51379476D01*
X251714142Y-51569952D01*
X251095095Y-51141381D02*
X251095095Y-51379476D01*
X251333190Y-51284238D02*
X251095095Y-51379476D01*
X250856999Y-51284238D01*
X251237952Y-51569952D02*
X251095095Y-51379476D01*
X250952237Y-51569952D01*
X210629333Y-60904381D02*
X210962667Y-60428190D01*
X211200762Y-60904381D02*
X211200762Y-59904381D01*
X210819809Y-59904381D01*
X210724571Y-59952000D01*
X210676952Y-59999619D01*
X210629333Y-60094857D01*
X210629333Y-60237714D01*
X210676952Y-60332952D01*
X210724571Y-60380571D01*
X210819809Y-60428190D01*
X211200762Y-60428190D01*
X210200762Y-60380571D02*
X209867428Y-60380571D01*
X209724571Y-60904381D02*
X210200762Y-60904381D01*
X210200762Y-59904381D01*
X209724571Y-59904381D01*
X208962666Y-60380571D02*
X209296000Y-60380571D01*
X209296000Y-60904381D02*
X209296000Y-59904381D01*
X208819809Y-59904381D01*
X208296000Y-59904381D02*
X208296000Y-60142476D01*
X208534095Y-60047238D02*
X208296000Y-60142476D01*
X208057904Y-60047238D01*
X208438857Y-60332952D02*
X208296000Y-60142476D01*
X208153142Y-60332952D01*
X207534095Y-59904381D02*
X207534095Y-60142476D01*
X207772190Y-60047238D02*
X207534095Y-60142476D01*
X207295999Y-60047238D01*
X207676952Y-60332952D02*
X207534095Y-60142476D01*
X207391237Y-60332952D01*
M02*
