M48
;DRILL file {KiCad 4.0.7} date 02/09/18 10:32:32
;FORMAT={-:-/ absolute / metric / decimal}
FMAT,2
METRIC,TZ
T1C0.500
T2C0.800
T3C0.813
T4C0.900
T5C1.000
T6C1.016
T7C1.100
T8C1.200
T9C1.400
T10C4.300
%
G90
G05
M71
T1
X201.168Y-114.3
X201.803Y-124.968
X201.93Y-118.11
X201.93Y-121.92
X203.962Y-120.904
X211.455Y-125.349
X212.852Y-127.
X215.265Y-108.585
X215.392Y-121.412
X224.536Y-86.36
X225.298Y-130.048
X226.06Y-109.855
X231.775Y-114.935
X232.791Y-111.887
X235.331Y-125.603
X245.872Y-119.38
X248.92Y-120.396
T2
X191.77Y-108.585
X191.77Y-111.76
X201.93Y-108.585
X201.93Y-111.76
X202.724Y-82.296
X204.724Y-82.296
X205.74Y-109.22
X205.74Y-116.84
X208.28Y-109.22
X208.28Y-116.84
X208.28Y-120.015
X208.28Y-130.175
X210.82Y-109.22
X210.82Y-116.84
X211.455Y-101.275
X211.455Y-104.775
X211.455Y-120.015
X211.455Y-130.175
X215.265Y-111.8
X215.265Y-114.3
X219.075Y-106.045
X219.075Y-116.205
X222.885Y-106.045
X222.885Y-116.205
X226.06Y-93.98
X228.6Y-101.6
X229.56Y-93.98
X238.76Y-101.6
X244.348Y-101.6
X245.618Y-100.33
X245.618Y-102.87
T3
X202.565Y-100.33
X202.565Y-105.41
T4
X188.214Y-112.268
X188.214Y-114.808
X188.214Y-117.602
X188.214Y-120.142
X188.214Y-122.936
X188.214Y-125.476
X188.214Y-128.27
X188.214Y-130.81
T5
X215.265Y-91.44
X217.805Y-91.44
X218.44Y-120.65
X220.345Y-91.44
X220.98Y-120.65
X223.52Y-120.65
X226.06Y-120.65
X228.6Y-120.65
X231.14Y-120.65
X233.68Y-120.65
X236.22Y-120.65
X238.76Y-96.52
X246.38Y-96.52
T6
X233.68Y-106.68
X233.68Y-129.54
X236.22Y-106.68
X236.22Y-129.54
X238.76Y-106.68
X238.76Y-129.54
X241.3Y-106.68
X241.3Y-129.54
X243.84Y-106.68
X243.84Y-129.54
X246.38Y-106.68
X246.38Y-129.54
X248.92Y-106.68
X248.92Y-129.54
X251.46Y-106.68
X251.46Y-129.54
T7
X209.55Y-86.36
X209.55Y-96.52
X233.68Y-86.36
X233.68Y-96.52
T8
X201.295Y-96.105
X201.535Y-67.31
X212.725Y-96.105
X216.535Y-67.31
X217.695Y-75.345
X221.595Y-75.445
X222.885Y-96.105
X238.76Y-78.74
X246.38Y-78.74
X246.38Y-86.36
T9
X197.16Y-127.
X200.66Y-127.
X203.2Y-87.785
X203.2Y-91.285
X204.16Y-127.
X215.575Y-127.
X219.075Y-127.
X221.135Y-67.31
X222.575Y-127.
X224.635Y-67.31
X243.84Y-65.08
X243.84Y-68.58
X243.84Y-72.08
T10
X191.135Y-67.945
X194.818Y-118.11
X256.54Y-87.376
T0
M30
