<?xml version="1.0" encoding="utf-8"?>
<!-- Generator: Adobe Illustrator 21.1.0, SVG Export Plug-In . SVG Version: 6.00 Build 0)  -->
<svg version="1.1" id="Layer_1" xmlns="http://www.w3.org/2000/svg" xmlns:xlink="http://www.w3.org/1999/xlink" x="0px" y="0px"
	 width="782.1px" height="275.1px" viewBox="0 0 782.1 275.1" style="enable-background:new 0 0 782.1 275.1;" xml:space="preserve"
	>
<style type="text/css">
	.st0{fill:none;stroke:#000000;stroke-width:0.5;stroke-miterlimit:10;}
	.st1{fill:none;stroke:#000000;stroke-width:0.5;stroke-linecap:round;stroke-linejoin:round;}
	.st2{fill:#FFFFFF;}
	.st3{fill:#FF0000;}
</style>
<title>SVG Picture created as machine-node-wifi-F.Cu.svg date 2018/02/04 20:30:05</title>
<desc>Picture generated by PCBNEW</desc>
<g transform="translate(0 0) scale(1 1)">
</g>
<circle class="st0" cx="222.5" cy="189.5" r="6.1"/>
<circle class="st0" cx="232.9" cy="47.3" r="6.1"/>
<circle class="st0" cx="47.5" cy="102.4" r="6.1"/>
<path class="st1" d="M241.1,168.9L241.1,168.9c-4,0-7.3,3.3-7.3,7.3v45.9c0,4,3.3,7.3,7.3,7.3l0,0c4,0,7.3-3.3,7.3-7.3v-45.9
	C248.5,172.2,245.2,168.9,241.1,168.9z"/>
<path class="st1" d="M252.3,258.1H29.8c-6.2,0-11.3-5.1-11.3-11.3V24.2c0-6.2,5.1-11.3,11.3-11.3h222.5c6.2,0,11.3,5.1,11.3,11.3
	v222.5C263.7,253,258.6,258.1,252.3,258.1z"/>
<circle class="st1" cx="56" cy="135.5" r="6.4"/>
<circle class="st1" cx="226.1" cy="135.5" r="6.4"/>
<path class="st0" d="M471.8,135.5"/>
<path class="st0" d="M477.4,129.8c3.1,0,5.7,2.5,5.7,5.7c0,3.1-2.5,5.7-5.7,5.7"/>
<path class="st0" d="M307.4,141.2c-3.1,0-5.7-2.5-5.7-5.7c0-3.1,2.5-5.7,5.7-5.7"/>
<path class="st0" d="M313,135.5"/>
<path class="st0" d="M307.4,129.8h5.7l-5-106.1c-0.3-6.1-5.3-10.8-11.3-10.8h-15.9c-6.2,0-11.3,5.1-11.3,11.3v222.5
	c0,6.2,5.1,11.3,11.3,11.3h222.5c6.2,0,11.3-5.1,11.3-11.3V24.2c0-6.2-5.1-11.3-11.3-11.3h-15.8c-6.1,0-11.1,4.8-11.3,10.9l-4.1,106
	h5.4"/>
<path class="st0" d="M477.4,141.2H472l-0.9,68c0,6.2-5.1,11.3-11.3,11.3H324.3c-6.2,0-11.3-5.1-11.3-11.3v-68h-5.7"/>
<circle class="st1" cx="492.1" cy="176.6" r="6.4"/>
<circle class="st1" cx="492.1" cy="191.7" r="6.4"/>
<circle class="st1" cx="492.1" cy="206.8" r="6.4"/>
<circle class="st1" cx="492.1" cy="221.9" r="6.4"/>
<circle class="st2" cx="743" cy="226.4" r="1.3"/>
<circle class="st1" cx="743" cy="177.5" r="6.4"/>
<circle class="st1" cx="743" cy="192.6" r="6.4"/>
<circle class="st1" cx="743" cy="207.7" r="6.4"/>
<circle class="st1" cx="743" cy="222.8" r="6.4"/>
<circle class="st1" cx="557.9" cy="136.4" r="6.4"/>
<circle class="st1" cx="728" cy="136.4" r="6.4"/>
<path class="st1" d="M754.2,13.8H687v80.1c0,23.4-19.1,42.5-42.5,42.5l0,0c-23.4,0-42.5-19.1-42.5-42.5V13.8h-70.3
	c-6.2,0-11.3,5.1-11.3,11.3v222.5c0,6.2,5.1,11.3,11.3,11.3h222.5c6.2,0,11.3-5.1,11.3-11.3V25.2C765.6,18.9,760.5,13.8,754.2,13.8z
	"/>
<path class="st3" d="M692.5,179.5v2.5c0,0.4-0.3,0.7-0.7,0.7s-0.7-0.3-0.7-0.7v-6.8c0-0.4,0.3-0.7,0.7-0.7h2.3
	c1.4,0,2.5,0.8,2.5,2.5s-1.1,2.5-2.5,2.5H692.5z M692.5,175.8v2.4h1.5c0.7,0,1.2-0.4,1.2-1.2s-0.5-1.2-1.2-1.2H692.5z"/>
<path class="st3" d="M697.4,178.6c0-2.8,1.4-4.2,3.8-4.2s3.8,1.4,3.8,4.2s-1.4,4.2-3.8,4.2S697.4,181.4,697.4,178.6z M698.8,178.6
	c0,2,0.8,3,2.4,3s2.4-1,2.4-3s-0.8-3-2.4-3S698.8,176.6,698.8,178.6z"/>
<path class="st3" d="M710.3,177.3l-1.4,4.9c-0.1,0.3-0.3,0.5-0.7,0.5c-0.3,0-0.6-0.2-0.7-0.5l-2.1-6.9c0-0.1,0-0.1,0-0.2
	c0-0.4,0.3-0.7,0.7-0.7s0.6,0.3,0.7,0.5l1.4,5l1.4-5c0.1-0.3,0.4-0.5,0.7-0.5s0.6,0.2,0.7,0.5l1.4,5l1.4-5c0.1-0.2,0.3-0.5,0.7-0.5
	s0.7,0.3,0.7,0.7c0,0.1,0,0.1,0,0.2l-2.1,6.9c-0.1,0.3-0.3,0.5-0.7,0.5c-0.3,0-0.6-0.2-0.7-0.5L710.3,177.3z"/>
<path class="st3" d="M717.5,177.9h2.3c0.3,0,0.6,0.3,0.6,0.6s-0.3,0.6-0.6,0.6h-2.3v2.2h3.2c0.3,0,0.6,0.3,0.6,0.6s-0.3,0.6-0.6,0.6
	h-3.9c-0.4,0-0.7-0.3-0.7-0.7v-6.7c0-0.4,0.3-0.7,0.7-0.7h3.7c0.3,0,0.6,0.3,0.6,0.6s-0.3,0.6-0.6,0.6h-3V177.9z"/>
<path class="st3" d="M723.7,179.5v2.5c0,0.4-0.3,0.7-0.7,0.7s-0.7-0.3-0.7-0.7v-6.8c0-0.4,0.3-0.7,0.7-0.7h2.3
	c1.6,0,2.5,1.2,2.5,2.5c0,1.1-0.7,2.2-1.8,2.4l1.8,2.2c0.1,0.1,0.1,0.3,0.1,0.4c0,0.4-0.3,0.7-0.7,0.7c-0.2,0-0.4-0.1-0.5-0.3
	l-2.2-2.9L723.7,179.5L723.7,179.5z M723.7,175.8v2.5h1.6c0.7,0,1.1-0.6,1.1-1.2c0-0.6-0.3-1.3-1.1-1.3H723.7z"/>
<path class="st3" d="M692.1,190.8c-1,0-1.4,0.5-1.4,0.9c0,1.6,4.4,0.8,4.4,3.8c0,1.5-1,2.4-3,2.4c-1.4,0-2.6-0.7-3-1.5
	c-0.1-0.1-0.1-0.2-0.1-0.3c0-0.4,0.3-0.6,0.6-0.6s0.4,0.1,0.5,0.3c0.5,0.5,1.1,0.9,2,0.9c1.1,0,1.6-0.4,1.6-1.1
	c0-1.8-4.4-0.9-4.4-3.8c0-1.2,0.9-2.2,2.8-2.2c1.2,0,2.2,0.4,2.7,1.1c0.1,0.1,0.1,0.2,0.1,0.4c0,0.3-0.3,0.6-0.6,0.6
	c-0.2,0-0.3-0.1-0.5-0.3C693.4,191,692.8,190.8,692.1,190.8z"/>
<path class="st3" d="M699.3,190.9v6.2c0,0.4-0.3,0.7-0.7,0.7s-0.7-0.3-0.7-0.7v-6.2h-1.8c-0.3,0-0.6-0.3-0.6-0.6s0.3-0.6,0.6-0.6
	h5.1c0.3,0,0.6,0.3,0.6,0.6s-0.3,0.6-0.6,0.6H699.3z"/>
<path class="st3" d="M703,195.6l-0.7,1.7c-0.1,0.3-0.3,0.5-0.6,0.5c-0.4,0-0.7-0.3-0.7-0.7c0-0.1,0-0.2,0-0.3l2.8-6.9
	c0.1-0.2,0.3-0.4,0.6-0.4c0.4,0,0.6,0.3,0.6,0.4l2.8,6.9c0,0.1,0,0.2,0,0.3c0,0.4-0.3,0.7-0.7,0.7c-0.3,0-0.5-0.2-0.6-0.5l-0.7-1.7
	H703z M704.5,191.8l-1,2.5h2L704.5,191.8z"/>
<path class="st3" d="M711.1,190.9v6.2c0,0.4-0.3,0.7-0.7,0.7s-0.7-0.3-0.7-0.7v-6.2h-1.8c-0.3,0-0.6-0.3-0.6-0.6s0.3-0.6,0.6-0.6
	h5.1c0.3,0,0.6,0.3,0.6,0.6s-0.3,0.6-0.6,0.6H711.1z"/>
<path class="st3" d="M714.6,195.1v-4.8c0-0.4,0.3-0.7,0.7-0.7s0.7,0.3,0.7,0.7v4.8c0,0.7,0.3,1.6,1.6,1.6s1.6-0.9,1.6-1.6v-4.8
	c0-0.4,0.3-0.7,0.7-0.7s0.7,0.3,0.7,0.7v4.8c0,1.4-0.6,2.8-3,2.8S714.6,196.5,714.6,195.1z"/>
<path class="st3" d="M724.7,190.8c-1,0-1.4,0.5-1.4,0.9c0,1.6,4.4,0.8,4.4,3.8c0,1.5-1,2.4-3,2.4c-1.4,0-2.6-0.7-3-1.5
	c-0.1-0.1-0.1-0.2-0.1-0.3c0-0.4,0.3-0.6,0.6-0.6s0.4,0.1,0.5,0.3c0.5,0.5,1.1,0.9,2,0.9c1.1,0,1.6-0.4,1.6-1.1
	c0-1.8-4.4-0.9-4.4-3.8c0-1.2,0.9-2.2,2.8-2.2c1.2,0,2.2,0.4,2.7,1.1c0.1,0.1,0.1,0.2,0.1,0.4c0,0.3-0.3,0.6-0.6,0.6
	c-0.2,0-0.3-0.1-0.5-0.3C726,191,725.4,190.8,724.7,190.8z"/>
<path class="st3" d="M693.9,204.5c2.4,0,3.9,1.1,3.9,4c0,3-1.5,4-3.9,4h-1.6c-0.4,0-0.7-0.3-0.7-0.7v-6.7c0-0.4,0.3-0.7,0.7-0.7
	L693.9,204.5L693.9,204.5z M693,211.3h0.9c1.5,0,2.5-0.7,2.5-2.8s-0.9-2.8-2.5-2.8H693V211.3z"/>
<path class="st3" d="M700.3,207.9h2.3c0.3,0,0.6,0.3,0.6,0.6s-0.3,0.6-0.6,0.6h-2.3v2.2h3.2c0.3,0,0.6,0.3,0.6,0.6s-0.3,0.6-0.6,0.6
	h-3.9c-0.4,0-0.7-0.3-0.7-0.7v-6.7c0-0.4,0.3-0.7,0.7-0.7h3.7c0.3,0,0.6,0.3,0.6,0.6s-0.3,0.6-0.6,0.6h-3V207.9z"/>
<path class="st3" d="M711.3,205.1v6.9c0,0.4-0.3,0.7-0.7,0.7c-0.2,0-0.4-0.1-0.6-0.3l-3.5-5.1v4.7c0,0.4-0.3,0.7-0.7,0.7
	s-0.7-0.3-0.7-0.7v-6.9c0-0.4,0.3-0.7,0.7-0.7c0.2,0,0.4,0.1,0.6,0.3l3.6,5.1v-4.7c0-0.4,0.3-0.7,0.7-0.7
	C711,204.4,711.3,204.8,711.3,205.1z"/>
<path class="st3" d="M714.1,212c0,0.4-0.3,0.7-0.7,0.7s-0.7-0.3-0.7-0.7v-6.9c0-0.4,0.3-0.7,0.7-0.7s0.7,0.3,0.7,0.7V212z"/>
<path class="st3" d="M716.9,207.9h2.3c0.3,0,0.6,0.3,0.6,0.6s-0.3,0.6-0.6,0.6h-2.3v2.2h3.2c0.3,0,0.6,0.3,0.6,0.6s-0.3,0.6-0.6,0.6
	h-3.9c-0.4,0-0.7-0.3-0.7-0.7v-6.7c0-0.4,0.3-0.7,0.7-0.7h3.7c0.3,0,0.6,0.3,0.6,0.6s-0.3,0.6-0.6,0.6h-3V207.9z"/>
<path class="st3" d="M724.1,204.5c2.4,0,3.9,1.1,3.9,4c0,3-1.5,4-3.9,4h-1.6c-0.4,0-0.7-0.3-0.7-0.7v-6.7c0-0.4,0.3-0.7,0.7-0.7
	L724.1,204.5L724.1,204.5z M723.2,211.3h0.9c1.5,0,2.5-0.7,2.5-2.8s-0.9-2.8-2.5-2.8h-0.9V211.3z"/>
<path class="st3" d="M682.7,223.3h2.3c0.3,0,0.6,0.3,0.6,0.6s-0.3,0.6-0.6,0.6h-2.3v2.2h3.2c0.3,0,0.6,0.3,0.6,0.6s-0.3,0.6-0.6,0.6
	H682c-0.4,0-0.7-0.3-0.7-0.7v-6.7c0-0.4,0.3-0.7,0.7-0.7h3.7c0.3,0,0.6,0.3,0.6,0.6s-0.3,0.6-0.6,0.6h-3V223.3z"/>
<path class="st3" d="M693.6,220.5v6.9c0,0.4-0.3,0.7-0.7,0.7c-0.2,0-0.4-0.1-0.6-0.3l-3.5-5.1v4.7c0,0.4-0.3,0.7-0.7,0.7
	s-0.7-0.3-0.7-0.7v-6.9c0-0.4,0.3-0.7,0.7-0.7c0.2,0,0.4,0.1,0.6,0.3l3.6,5.1v-4.7c0-0.4,0.3-0.7,0.7-0.7
	C693.3,219.8,693.6,220.1,693.6,220.5z"/>
<path class="st3" d="M696.6,225.9l-0.7,1.7c-0.1,0.3-0.3,0.5-0.6,0.5c-0.4,0-0.7-0.3-0.7-0.7c0-0.1,0-0.2,0-0.3l2.8-6.9
	c0.1-0.2,0.3-0.4,0.6-0.4c0.4,0,0.6,0.3,0.6,0.4l2.8,6.9c0,0.1,0,0.2,0,0.3c0,0.4-0.3,0.7-0.7,0.7c-0.3,0-0.5-0.2-0.6-0.5l-0.7-1.7
	H696.6z M698.1,222.1l-1,2.5h2L698.1,222.1z"/>
<path class="st3" d="M703.2,228c-0.4,0-0.7-0.3-0.7-0.7v-6.7c0-0.4,0.3-0.7,0.7-0.7h2.2c1.8,0,2.5,1,2.5,2.1c0,0.8-0.4,1.4-0.9,1.6
	c0.9,0.3,1.2,1,1.2,1.9c0,1.5-0.9,2.4-2.6,2.4L703.2,228L703.2,228z M703.9,223.3h1.5c0.8,0,1.1-0.4,1.1-1s-0.3-1-1.1-1h-1.5V223.3z
	 M703.9,226.8h1.7c0.9,0,1.2-0.5,1.2-1.2s-0.4-1.2-1.2-1.2h-1.7V226.8z"/>
<path class="st3" d="M713.6,226.8c0.4,0,0.7,0.3,0.7,0.6c0,0.4-0.3,0.6-0.7,0.6h-3.5c-0.4,0-0.7-0.3-0.7-0.7v-6.8
	c0-0.4,0.3-0.7,0.7-0.7s0.7,0.3,0.7,0.7v6.2L713.6,226.8L713.6,226.8z"/>
<path class="st3" d="M716.6,223.3h2.3c0.3,0,0.6,0.3,0.6,0.6s-0.3,0.6-0.6,0.6h-2.3v2.2h3.2c0.3,0,0.6,0.3,0.6,0.6s-0.3,0.6-0.6,0.6
	h-3.9c-0.4,0-0.7-0.3-0.7-0.7v-6.7c0-0.4,0.3-0.7,0.7-0.7h3.7c0.3,0,0.6,0.3,0.6,0.6s-0.3,0.6-0.6,0.6h-3V223.3z"/>
<path class="st3" d="M723.8,219.9c2.4,0,3.9,1.1,3.9,4c0,3-1.5,4-3.9,4h-1.6c-0.4,0-0.7-0.3-0.7-0.7v-6.7c0-0.4,0.3-0.7,0.7-0.7
	L723.8,219.9L723.8,219.9z M722.9,226.8h0.9c1.5,0,2.5-0.7,2.5-2.8s-0.9-2.8-2.5-2.8h-0.9V226.8z"/>
</svg>
